<?xml version="1.0" encoding="UTF-8" standalone="no"?>
<svg
   version="1.1"
   width="256.00034"
   height="256.00034"
   viewBox="0 0 800.00002 800.00002"
   id="svg1"
   sodipodi:docname="puzzle.svg"
   inkscape:version="1.4.3 (0d15f75042, 2025-12-25)"
   xmlns:inkscape="http://www.inkscape.org/namespaces/inkscape"
   xmlns:sodipodi="http://sodipodi.sourceforge.net/DTD/sodipodi-0.dtd"
   xmlns="http://www.w3.org/2000/svg"
   xmlns:svg="http://www.w3.org/2000/svg">
  <defs
     id="defs1" />
  <sodipodi:namedview
     id="namedview1"
     pagecolor="#ffffff"
     bordercolor="#666666"
     borderopacity="1.0"
     inkscape:showpageshadow="2"
     inkscape:pageopacity="0.0"
     inkscape:pagecheckerboard="0"
     inkscape:deskcolor="#d1d1d1"
     inkscape:document-units="in"
     inkscape:zoom="6.678836"
     inkscape:cx="91.033827"
     inkscape:cy="80.777549"
     inkscape:window-width="3440"
     inkscape:window-height="1420"
     inkscape:window-x="1920"
     inkscape:window-y="20"
     inkscape:window-maximized="0"
     inkscape:current-layer="svg1" />
  <path
     id="female_tight"
     fill="none"
     stroke="#000000"
     stroke-width="1"
     d="M 400,98.25 342.61,268 l 10.1,35.57 40.54,-4.93 32.51,-43.28 31.24,-16.81 22.57,0.75 46.24717,52.68201 -1.25232,137.90632 -380.96683,0.0226 2.89311,-331.616187 z"
     sodipodi:nodetypes="cccccccccccc" />
  <path
     id="male_tight"
     fill="none"
     stroke="#000000"
     stroke-width="1"
     d="m 0,400 393.58804,-327.750114 12.96249,-2.017821 -77.48,208.299995 10.03947,53.5779 51.57,-7.4 55.76,-69.77 40.99,-4.31 30.57,38.8 V 430 Z"
     sodipodi:nodetypes="ccccccccccc" />
  <circle
     style="fill:#000000;stroke-width:3.125;fill-opacity:0.30000001"
     id="path1"
     cx="0"
     cy="0"
     r="399.99948" />
  <ellipse
     style="fill:#000000;fill-opacity:0.3;stroke-width:3.125"
     id="circle1"
     cx="800"
     cy="0"
     rx="400"
     ry="400" />
  <path
     id="female_loose"
     fill="none"
     stroke="#000000"
     stroke-width="1"
     d="m 400.46789,98.25 -26.04101,133.25416 6.82473,22.46894 22.29209,2.08843 27.36315,-39.53684 32.17579,-1.83735 33.33159,3.55737 28.93504,45.19569 -0.78442,166.44793 -380.96683,0.0226 2.89311,-331.616187 z"
     sodipodi:nodetypes="cccccccccccc" />
  <path
     id="male_loose"
     fill="none"
     stroke="#000000"
     stroke-width="1"
     d="m 0,400 384.69803,-291.25428 4.54037,2.66113 -84.03053,184.90523 24.54422,68.08266 75.90056,-6.93211 41.72314,-68.36631 37.24684,-11.32843 32.90947,36.46052 L 518,430 Z"
     sodipodi:nodetypes="ccccccccccc" />
</svg>
