<?xml version="1.0" encoding="UTF-8" standalone="no"?>
<!-- Created with Inkscape (http://www.inkscape.org/) -->

<svg
   width="210mm"
   height="297mm"
   viewBox="0 0 210 297"
   version="1.1"
   id="svg1"
   inkscape:version="1.4.3 (0d15f75042, 2025-12-25)"
   sodipodi:docname="curve.svg"
   xmlns:inkscape="http://www.inkscape.org/namespaces/inkscape"
   xmlns:sodipodi="http://sodipodi.sourceforge.net/DTD/sodipodi-0.dtd"
   xmlns="http://www.w3.org/2000/svg"
   xmlns:svg="http://www.w3.org/2000/svg">
  <sodipodi:namedview
     id="namedview1"
     pagecolor="#ffffff"
     bordercolor="#666666"
     borderopacity="1.0"
     inkscape:showpageshadow="2"
     inkscape:pageopacity="0.0"
     inkscape:pagecheckerboard="0"
     inkscape:deskcolor="#d1d1d1"
     inkscape:document-units="mm"
     inkscape:zoom="1.0770412"
     inkscape:cx="396.4565"
     inkscape:cy="561.25984"
     inkscape:window-width="3440"
     inkscape:window-height="1420"
     inkscape:window-x="1920"
     inkscape:window-y="20"
     inkscape:window-maximized="0"
     inkscape:current-layer="layer1" />
  <defs
     id="defs1" />
  <g
     inkscape:label="Layer 1"
     inkscape:groupmode="layer"
     id="layer1">
    <path
       style="fill:none;stroke:#000000;stroke-width:0.264583px;stroke-linecap:butt;stroke-linejoin:miter;stroke-opacity:1"
       d="m 133.63771,68.292802 c -0.32754,-0.08189 -0.65508,-0.163772 -0.98262,-0.245655 -0.16378,-0.08189 -0.31762,-0.187756 -0.49132,-0.245658 -0.23305,-0.07768 -0.49609,0.04818 -0.73697,0 -0.25392,-0.05078 -0.48306,-0.194876 -0.73698,-0.245658 -0.16059,-0.03212 -0.32754,0 -0.49131,0 -0.32754,0 -0.65509,0 -0.98263,0 -0.90075,0 -1.80149,0 -2.70223,0 -0.40943,0 -0.81886,0 -1.22829,0 -0.24566,0 -0.49132,0 -0.73697,0 -0.0819,0 -0.16622,-0.01987 -0.24566,0 -2.04474,0.511183 0.29653,-0.01696 -1.22829,0.491316 -0.0777,0.0259 -0.16797,-0.0259 -0.24566,0 -0.1737,0.0579 -0.32131,0.177654 -0.49131,0.245655 -0.48085,0.192341 -0.99793,0.287308 -1.47395,0.491315 -0.82367,0.353005 -1.65499,0.827498 -2.45657,1.228289 -0.16378,0.08189 -0.32131,0.177654 -0.49132,0.245657 -0.24042,0.09617 -0.49655,0.149487 -0.73697,0.245658 -0.4712,0.188479 -1.50042,0.85738 -1.7196,0.982631 -0.66973,0.382696 -0.47711,0.136025 -1.22829,0.736973 -0.18086,0.144685 -0.31046,0.34663 -0.49132,0.491315 -0.27248,0.46482 -0.85544,0.438698 -1.22829,0.736973 -0.27128,0.217025 -0.46568,0.519946 -0.73697,0.736971 -0.14298,0.114384 -0.34833,0.131275 -0.49131,0.245657 -1.86634,1.493068 -0.48443,0.224997 -0.73697,0.982631 -0.0579,0.173707 -0.11619,0.361842 -0.24566,0.491315 -0.12948,0.129474 -0.38975,0.09331 -0.49132,0.245658 -0.2446,0.366908 -0.31761,0.822973 -0.49131,1.228289 -0.0721,0.168296 -0.18776,0.317608 -0.24566,0.491315 -0.10677,0.320297 -0.15291,0.657995 -0.24566,0.982631 -0.0711,0.248981 -0.18285,0.485756 -0.24566,0.73697 -0.10126,0.405072 -0.14438,0.823217 -0.24565,1.228288 -0.16969,0.678744 -0.56729,1.286518 -0.73698,1.965262 -0.0596,0.238323 0.0305,0.493212 0,0.736973 -0.30335,2.426838 -0.10933,0.24634 -0.49131,1.965259 -0.87894,3.95523 0.0468,-0.128397 -0.24566,2.210919 -0.0518,0.414314 -0.19387,0.813975 -0.24566,1.228288 -0.0609,0.487522 0.0964,0.992172 0,1.473944 -0.0359,0.179549 -0.21976,0.310055 -0.24566,0.491315 -0.0579,0.405315 0,0.818859 0,1.228289 0,0.245657 0,0.491315 0,0.736973 0,0.327543 0,0.655087 0,0.98263 0,0.163772 -0.0397,0.332434 0,0.491316 0.0444,0.177633 0.20125,0.313679 0.24566,0.491315 0.0397,0.15888 0,0.327544 0,0.491316 0,0.327541 -0.0463,0.658378 0,0.982628 0.0366,0.256344 0.19488,0.483055 0.24566,0.736973 0.0321,0.160591 -0.0232,0.329189 0,0.491315 0.059,0.413343 0.18661,0.814946 0.24566,1.228289 0.0232,0.162126 -0.0269,0.329771 0,0.491315 0.0555,0.333031 0.19791,0.648398 0.24566,0.982633 0.0347,0.24318 -0.0347,0.49378 0,0.73697 0.0477,0.33423 0.19015,0.6496 0.24565,0.98263 0.0269,0.16154 -0.0269,0.32977 0,0.49131 0.22976,1.37852 0.19926,0.55138 0.49132,1.71961 0.10127,0.40507 0.18661,0.81494 0.24566,1.22829 0.24565,1.7196 -0.49132,-1.47395 0,1.47394 0.0301,0.18061 0.21976,0.31005 0.24565,0.49132 0.0579,0.40531 0,0.81885 0,1.22828 0,0.16378 -0.0269,0.32977 0,0.49132 0.0555,0.33303 0.19791,0.6484 0.24566,0.98263 0.098,0.68617 -0.0865,1.51859 0,2.21092 0.0518,0.41431 0.19955,0.8133 0.24566,1.22828 0.0362,0.32555 0,0.65509 0,0.98264 0,0.40942 0,0.81885 0,1.22828 0,0.90075 0,1.80149 0,2.70224 0,0.49131 0,0.98263 0,1.47394 0,0.32755 0.0642,0.66145 0,0.98263 -0.10157,0.50784 -0.39867,0.96441 -0.49132,1.47395 -0.0732,0.40282 0.0803,0.82681 0,1.22828 -0.0865,0.43241 -0.33648,0.8154 -0.49131,1.22829 -0.22109,0.58958 -0.54045,1.76874 -0.73697,2.21092 -0.11991,0.2698 -0.32755,0.49132 -0.49132,0.73698 -0.32754,0.49131 -0.66967,0.97321 -0.98263,1.47394 -0.73128,1.17005 0.54066,-0.35401 -0.98263,1.47394 -0.14827,0.17793 -0.35235,0.30603 -0.49131,0.49132 -0.21973,0.29296 -0.23237,0.72368 -0.49132,0.98263 -0.12947,0.12947 -0.34483,0.1358 -0.49132,0.24566 -0.18528,0.13896 -0.32754,0.32754 -0.49131,0.49131 -0.40943,0.40943 -0.81886,0.81886 -1.22829,1.22829 -0.16377,0.16377 -0.31046,0.34663 -0.49131,0.49131 -0.23055,0.18444 -0.50643,0.30688 -0.73697,0.49132 -0.18086,0.14469 -0.30604,0.35235 -0.49132,0.49132 -0.146484,0.10986 -0.344834,0.13579 -0.491315,0.24565 -0.370573,0.27793 -0.605698,0.71339 -0.982631,0.98263 -0.388536,0.27753 -0.823391,0.48392 -1.228289,0.73698 -0.750773,0.46923 -1.460142,1.00471 -2.210916,1.47394 -0.155271,0.097 -0.344834,0.1358 -0.491315,0.24566 -0.185288,0.13897 -0.306031,0.35235 -0.491316,0.49131 -0.292965,0.21973 -0.668613,0.30291 -0.982631,0.49132 -0.253169,0.1519 -0.483803,0.33941 -0.736973,0.49131 -0.157009,0.0942 -0.348337,0.13128 -0.491315,0.24566 -0.271283,0.21703 -0.447908,0.54427 -0.736973,0.73698 -0.215456,0.14363 -0.510611,0.1199 -0.736973,0.24565 -0.516178,0.28677 -0.973212,0.66968 -1.473944,0.98263 -1.524127,0.95258 1.245291,-1.13515 -1.719603,0.98263 -0.188468,0.13462 -0.302848,0.3567 -0.491316,0.49132 -0.388535,0.27752 -0.813726,0.50008 -1.228288,0.73697 -0.158978,0.0908 -0.344832,0.1358 -0.491316,0.24566 -0.185285,0.13896 -0.310459,0.34663 -0.491315,0.49131 -0.230545,0.18444 -0.491313,0.32755 -0.73697,0.49132 -0.645576,0.43038 -1.319686,0.7979 -1.965262,1.22829 -0.09636,0.0642 -0.155231,0.17331 -0.245657,0.24565 -0.327544,0.24566 -0.655088,0.49132 -0.982631,0.73698 -0.163772,0.16377 -0.313389,0.34304 -0.491316,0.49131 -0.314531,0.26211 -0.668096,0.47486 -0.98263,0.73698 -1.114081,0.9284 -1.513962,2.46519 -2.210917,3.68486 -0.146481,0.25634 -0.344834,0.48063 -0.491315,0.73697 -0.18169,0.31796 -0.309626,0.66468 -0.491316,0.98263 -0.146481,0.25634 -0.375012,0.4656 -0.491315,0.73697 -0.132995,0.31033 -0.11266,0.67231 -0.245658,0.98263 -0.116303,0.27138 -0.359277,0.4729 -0.491315,0.73698 -0.343919,0.68784 -0.393052,1.52307 -0.736973,2.21092 -0.132035,0.26407 -0.375013,0.4656 -0.491313,0.73697 -0.0029,0.007 -0.484232,1.94164 -0.491315,1.96526 -0.148815,0.49605 -0.309473,0.98903 -0.491315,1.47394 -0.06429,0.17145 -0.209749,0.31177 -0.245658,0.49132 -0.04818,0.24089 0.04818,0.49608 0,0.73697 -0.03591,0.17955 -0.209749,0.31177 -0.245658,0.49132 -0.04818,0.24088 0,0.49131 0,0.73697 0,0.32754 0,0.65509 0,0.98263 0,0.90074 0,1.80149 0,2.70223 0,0.24566 -0.03474,0.49379 0,0.73698 0.04775,0.33423 0.163772,0.65508 0.245658,0.98262 0.270026,1.08011 0.611968,2.51256 0.982631,3.43921 0.423836,1.05959 0.899631,1.29202 1.473943,2.21092 0.194088,0.31054 0.327544,0.65509 0.491315,0.98263 0.327544,0.49131 0.665613,0.97577 0.982631,1.47395 0.256344,0.40282 0.399349,0.89066 0.736973,1.22828 0.417536,0.41754 1.03504,0.58762 1.473946,0.98263 0.389726,0.35076 0.598408,0.87151 0.982628,1.22829 0.768446,0.71356 1.637718,1.31017 2.456577,1.96526 0.40943,0.32755 0.818859,0.65509 1.228289,0.98263 0.818859,0.65509 1.610936,1.34513 2.456574,1.96526 0.385037,0.28236 0.815858,0.49639 1.228288,0.73697 0.945984,0.55183 2.69285,1.56846 3.684863,1.96527 0.5535,0.2214 1.162521,0.27909 1.719604,0.49131 1.165537,0.44401 2.261184,1.0642 3.439205,1.47395 0.713049,0.24801 1.473946,0.32754 2.210919,0.49131 1.473946,0.32754 2.935449,0.71721 4.421839,0.98263 2.19699,0.39232 4.72539,0.24566 6.87841,0.24566 0.65509,0 1.31017,0 1.96526,0 1.55583,0 3.11166,0 4.66749,0 0.57321,0 1.14686,0.0229 1.7196,0 1.47504,-0.059 2.94997,-0.13244 4.42184,-0.24566 2.69277,-0.20713 2.57787,-0.507 5.89579,-1.22828 0.5658,-0.12301 1.153,-0.12638 1.7196,-0.24566 0.99114,-0.20867 1.96526,-0.49132 2.94789,-0.73698 0.32754,-0.0819 0.6665,-0.12711 0.98263,-0.24565 0.99673,-0.37378 1.96355,-0.82298 2.94789,-1.22829 0.40775,-0.1679 0.82929,-0.30355 1.22829,-0.49132 0.99404,-0.46778 1.95384,-1.00615 2.94789,-1.47394 0.39899,-0.18776 0.84542,-0.27253 1.22829,-0.49132 2.01246,-1.14998 3.70495,-2.61829 5.40446,-4.17618 0.2561,-0.23475 0.47991,-0.50327 0.73697,-0.73697 0.64409,-0.58553 1.29656,-1.16235 1.96527,-1.7196 0.31453,-0.26211 0.67967,-0.46156 0.98262,-0.73697 1.57859,-1.43509 1.45068,-1.36103 2.45658,-2.70224 0.49132,-0.65509 0.99232,-1.30302 1.47395,-1.96526 0.17365,-0.23877 0.34993,-0.47778 0.49131,-0.73697 0.35072,-0.64298 0.65509,-1.31017 0.98263,-1.96526 0.24566,-0.49132 0.55222,-0.95664 0.73697,-1.47395 0.22711,-0.63591 0.27779,-1.32466 0.49132,-1.96526 2.35067,-7.05202 -1.81078,7.83574 1.96526,-5.65012 0.54062,-1.93077 0.51751,-2.44671 0.73697,-4.42184 0.0819,-0.73697 0.16936,-1.47334 0.24566,-2.21092 0.16936,-1.63714 0.38183,-3.27091 0.49131,-4.91315 0.0545,-0.81704 0,-1.63771 0,-2.45657 0,-1.47395 0,-2.94789 0,-4.42184 0,-0.65509 0,-1.31017 0,-1.96526 0,-1.39206 0.11102,-2.78855 0,-4.17618 -0.0538,-0.6731 -0.40008,-1.2962 -0.49131,-1.96526 -0.15529,-1.13878 -0.13669,-2.29506 -0.24566,-3.43921 -0.0549,-0.57641 -0.16377,-1.14639 -0.24565,-1.7196 -0.41477,-2.90334 -0.82288,-5.73332 -1.47395,-8.59801 -0.13212,-0.58132 -0.32754,-1.14641 -0.49132,-1.7196 -0.32754,-1.14641 -0.70647,-2.27936 -0.98263,-3.43921 -0.13411,-0.56328 -0.10522,-1.15787 -0.24565,-1.71961 -0.27013,-1.08051 -0.68454,-2.12041 -0.98263,-3.19354 -0.85485,-3.07746 0.57189,0.97872 -0.73698,-2.94789 -0.69683,-2.0905 -0.39164,-0.38695 -0.98263,-2.94789 -0.112,-0.48534 -0.0992,-0.99788 -0.24565,-1.47395 -1.98416,-6.4485 0.32654,2.40384 -1.22829,-3.19355 -0.27109,-0.97592 -0.41668,-1.98699 -0.73698,-2.94789 -0.1737,-0.52112 -0.55221,-0.956638 -0.73697,-1.473943 -0.65864,-1.844188 -0.34599,-1.744954 -0.73697,-3.439208 -0.13405,-0.580871 -0.35727,-1.138729 -0.49131,-1.719601 -0.112,-0.485338 -0.11461,-0.993404 -0.24566,-1.473946 -0.11603,-0.425431 -0.36689,-0.805238 -0.49132,-1.228288 -0.2858,-0.971714 -0.46588,-1.971969 -0.73697,-2.94789 -0.13861,-0.498999 -0.32754,-0.982631 -0.49132,-1.473946 -0.32754,-0.982631 -0.6379,-1.971156 -0.98263,-2.94789 -0.14676,-0.415829 -0.35187,-0.80995 -0.49131,-1.228288 -0.27035,-0.811043 -0.44944,-1.651468 -0.73697,-2.456577 -0.29119,-0.815316 -1.44819,-2.482606 -1.71961,-2.947889 -1.78943,-3.067593 1.26034,1.617072 -1.47394,-2.21092 -0.10643,-0.148994 -0.16377,-0.327543 -0.24566,-0.491315 -0.16377,-0.163772 -0.35235,-0.306028 -0.49131,-0.491315 -0.58155,-0.775399 0.18461,-0.3067 -0.73698,-1.228286 -0.12947,-0.129474 -0.34483,-0.135798 -0.49131,-0.245658 -1.13971,0.210206 -0.28255,-0.528203 -0.49132,-0.736973 -0.0579,-0.0579 -0.18775,0.0579 -0.24566,0 -0.0579,-0.0579 0.0579,-0.187756 0,-0.245658 -0.0579,-0.0579 -0.17241,0.03662 -0.24565,0 -0.20716,-0.103579 -0.29861,-0.362841 -0.49132,-0.491315 -0.16377,-0.08189 -0.32754,-0.163772 -0.49131,-0.245658 -0.0819,0 -0.17242,0.03662 -0.24566,0 -0.26408,-0.132037 -0.46285,-0.381664 -0.73697,-0.491315 -0.15206,-0.06082 -0.33073,0.03212 -0.49132,0 -0.25392,-0.05078 -0.48576,-0.182854 -0.73697,-0.245658 -0.60127,-0.150317 0.13772,0.501243 -0.98263,-0.245657 -0.0681,-0.04542 0.0579,-0.187757 0,-0.245658 -0.0579,-0.0579 -0.16377,0 -0.24566,0 -0.49132,-0.491315 -0.98263,-0.982631 -1.47395,-1.473946 z"
       id="path1" />
  </g>
</svg>
